<svg width="20" height="19" viewBox="0 0 20 19" fill="none" xmlns="http://www.w3.org/2000/svg">
<path d="M17.3333 3.5H15.5V1.66667C15.5 1.16067 15.0902 0.75 14.5833 0.75H1.74998C1.24306 0.75 0.833313 1.16067 0.833313 1.66667V15.4167C0.833313 16.9328 2.06715 18.1667 3.58331 18.1667H12.75C14.2661 18.1667 15.5 16.9328 15.5 15.4167V14.5H17.3333C18.3444 14.5 19.1666 13.6778 19.1666 12.6667V5.33333C19.1666 4.32225 18.3444 3.5 17.3333 3.5ZM6.33331 13.5833H4.49998V4.41667H6.33331V13.5833ZM11.8333 13.5833H9.99998V4.41667H11.8333V13.5833ZM17.3333 12.6667H15.5V5.33333H17.3333V12.6667Z" fill="#484848"/>
</svg>
