<svg width="22" height="22" viewBox="0 0 22 22" fill="none" xmlns="http://www.w3.org/2000/svg">
<path d="M18.3333 5.5H16.5V3.66667C16.5 3.16067 16.0902 2.75 15.5833 2.75H2.74998C2.24306 2.75 1.83331 3.16067 1.83331 3.66667V17.4167C1.83331 18.9328 3.06715 20.1667 4.58331 20.1667H13.75C15.2661 20.1667 16.5 18.9328 16.5 17.4167V16.5H18.3333C19.3444 16.5 20.1666 15.6778 20.1666 14.6667V7.33333C20.1666 6.32225 19.3444 5.5 18.3333 5.5ZM7.33331 15.5833H5.49998V6.41667H7.33331V15.5833ZM12.8333 15.5833H11V6.41667H12.8333V15.5833ZM18.3333 14.6667H16.5V7.33333H18.3333V14.6667Z" fill="#999999"/>
</svg>
